<?xml version="1.0" encoding="UTF-8"?>
<svg id="Layer_2" data-name="Layer 2" xmlns="http://www.w3.org/2000/svg" xmlns:xlink="http://www.w3.org/1999/xlink" viewBox="0 0 268.91 493.21">
  <defs>
    <style>
      .cls-1 {
        fill: url(#linear-gradient-8);
      }

      .cls-2 {
        fill: url(#linear-gradient-7);
      }

      .cls-3 {
        fill: url(#linear-gradient-5);
      }

      .cls-4 {
        fill: url(#linear-gradient-6);
      }

      .cls-5 {
        fill: url(#linear-gradient-9);
      }

      .cls-6 {
        fill: url(#linear-gradient-4);
      }

      .cls-7 {
        fill: url(#linear-gradient-3);
      }

      .cls-8 {
        fill: url(#linear-gradient-2);
      }

      .cls-9 {
        fill: url(#linear-gradient);
      }

      .cls-10 {
        fill: url(#linear-gradient-10);
      }

      .cls-11 {
        fill: url(#linear-gradient-11);
      }
    </style>
    <linearGradient id="linear-gradient" x1="82.83" y1="484.73" x2="64.58" y2="453.14" gradientUnits="userSpaceOnUse">
      <stop offset="0" stop-color="#0f0c29"/>
      <stop offset="1" stop-color="#1e5398"/>
    </linearGradient>
    <linearGradient id="linear-gradient-2" x1="119.03" y1="499.29" x2="96.7" y2="460.61" xlink:href="#linear-gradient"/>
    <linearGradient id="linear-gradient-3" x1="169.35" y1="494.72" x2="144.66" y2="451.95" xlink:href="#linear-gradient"/>
    <linearGradient id="linear-gradient-4" x1="212.19" y1="500.27" x2="188.54" y2="459.3" xlink:href="#linear-gradient"/>
    <linearGradient id="linear-gradient-5" x1="262.29" y1="497.04" x2="236.5" y2="452.38" xlink:href="#linear-gradient"/>
    <linearGradient id="linear-gradient-6" x1="0" y1="360.36" x2="173.58" y2="360.36" xlink:href="#linear-gradient"/>
    <linearGradient id="linear-gradient-7" x1="166.99" y1="147.17" x2="191.51" y2="147.17" xlink:href="#linear-gradient"/>
    <linearGradient id="linear-gradient-8" x1="208.49" y1="208.72" x2="268.28" y2="208.72" xlink:href="#linear-gradient"/>
    <linearGradient id="linear-gradient-9" x1="131.19" y1="281.82" x2="256.62" y2="281.82" xlink:href="#linear-gradient"/>
    <linearGradient id="linear-gradient-10" x1="230.81" y1="323.84" x2="259.45" y2="323.84" xlink:href="#linear-gradient"/>
    <linearGradient id="linear-gradient-11" x1="246.29" y1="158.26" x2="223.18" y2="118.24" xlink:href="#linear-gradient"/>
  </defs>
  <g id="Layer_1-2" data-name="Layer 1">
    <g>
      <g>
        <path class="cls-9" d="M64.03,453.45h24.42v3.66h-20.32v16.03h17.92v3.66h-17.92v16.41h-4.1v-39.76Z"/>
        <path class="cls-8" d="M109.1,453.45h5.17l15.27,39.76h-4.48l-3.98-10.67h-18.81l-4.04,10.67h-4.42l15.27-39.76ZM119.7,478.89l-8.02-21.33-8.02,21.33h16.03Z"/>
        <path class="cls-7" d="M142.05,453.45h5.81l20.01,34.46v-34.46h4.1v39.76h-5.81l-20.01-34.52v34.52h-4.1v-39.76Z"/>
        <path class="cls-6" d="M198.66,453.45h10.86l14.89,39.76h-9.4l-2.71-7.89h-16.47l-2.71,7.89h-9.34l14.9-39.76ZM209.96,478.57l-5.87-17.17-5.93,17.17h11.8Z"/>
        <path class="cls-3" d="M234.64,453.45h15.72c13.13,0,17.04,4.73,17.04,12.43,0,6.12-3.35,10.04-8.52,11.87l10.03,15.46h-10.79l-8.39-14.01h-6.19v14.01h-8.9v-39.76ZM250.36,472.39c3.34,0,5.3-.44,6.63-1.01,1.01-1.39,1.45-3.09,1.45-5.24,0-3.47-1.83-5.87-8.08-5.87h-6.82v12.12h6.82Z"/>
      </g>
      <g>
        <path class="cls-4" d="M156.84,276.64c.28,1.85.1,3.92.91,5.5,2.73,5.35,5.62,10.63,8.79,15.73,3.64,5.86,7.38,11.73,7.02,18.89-.6,12.01-.17,24.46-7.35,34.93-4.29,6.24-9.14,12.37-14.83,17.3-10.39,9.01-21.43,17.28-32.49,25.48-8.3,6.15-16.93,11.9-25.64,17.47-12.82,8.2-26.25,17.57-41.1,22.6-15.56,5.26-33.09,6.63-49.23,9.51-.85.15-1.71.26-2.91-.37,3.17-1.72,6.23-3.69,9.53-5.1,18.23-7.81,35.79-16.95,52.81-27.09,24.5-14.59,48.14-30.49,71.09-47.42,10.65-7.86,21.31-15.69,29.57-26.18,8.22-10.43,7.2-9.12,1.5-18.97-2.45-4.23-5.53-8.09-8.11-12.24-4.27-6.87-4.82-14.32-3.03-22.06.63-2.69,1.25-5.38,1.88-8.07.53.03,1.06.06,1.58.1Z"/>
        <path class="cls-2" d="M180.89,294.34c-.08-.67-.16-1.08-.18-1.5-.79-16-1.05-32.06-2.53-48-2.69-29.08-3.29-58.31-5.57-87.42-1.1-13.97-1.22-28.01-1.8-42.03-.82-19.82-1.67-39.63-2.49-59.45-.48-11.51-1.21-23.02-1.32-34.54-.08-8.29,4.6-14.83,8.79-21.42.35.07.71.14,1.06.21.16,2.85.33,5.7.49,8.55.95,17.56,1.84,35.12,2.86,52.68,2.83,49.09,5.56,98.18,8.21,147.28.94,17.32,1.96,34.64,3.02,51.95.74,12.11-3.29,22.82-9.41,32.95-.15.24-.52.35-1.12.72Z"/>
        <path class="cls-1" d="M249.72,174.36c-9.25-9.19-20.9-9.86-29.18-1.55-8.77,8.8-11.9,20.07-12.04,32.36-.03,2.66,1.42,5.7,2.99,7.9,4.12,5.77,10.48,6.73,16.72,7.52,6.55.83,13.23,1.39,18.95,5.15,2.98,1.96,5.38,4.94,8.46,7.85-.57-.54.71-6.9.77-8.1.18-3.57-.19-6.66-1.19-10.05-1.47-4.95-3.75-9.79-8.58-11.76-6.62-2.7-13.87-2.51-20.8-3.6-1.87-.29-3.72-.75-5.54-1.28-2.99-.88-3.21-1.76-1.24-4.44,6.04-8.25,14.43-9.21,22.49-1.9,10.74,9.73,18.19,26.43,19.47,41.44.21,2.47,1.44,15.06-.57,16.54,1.07-.79,1.49-.93,1.56-1.17,3.87-13.49,8.07-27.38,5.53-41.81-2.27-12.9-8.88-24.24-17.79-33.09Z"/>
      </g>
      <path class="cls-5" d="M243.54,311.59c.7-1.65,1.32-3.34,2.13-4.94,4.48-8.84,6.94-18.24,7.79-28.06,2.03-23.41-20.89-36.22-41.08-37.48-26.46-1.65-52.17,18.27-70.36,35.44-1.43,1.35-2.64,2.93-3.95,4.42-3.84,4.38-.86,9.05,2.23,12.79,3.7,4.49,7.27,9.1,10.67,13.83,4.35,6.07,8.53,11.79,7.55,19.66-.49,3.94-1.33,7.84-2.02,11.76l-.72.03c-.27-.36-.78-.7-.79-1.07-.22-5.79-3.75-10.69-7.21-15.07-4.98-6.31-11.24-12.84-14.19-20.41-3.05-7.82-3.09-16.67-.74-24.67,2.63-8.96,8.92-16.22,15.64-22.45,7.81-7.25,15.9-14.54,25.38-19.55,15.3-8.07,31.05-14.23,48.63-9.68,13.89,3.59,26.67,13.14,31.71,26.89.97,2.66,1.64,5.42,1.99,8.23,1.76,13.92-2.29,28.22-6.78,41.24-1.14,3.31-3.25,6.29-4.91,9.42-.32-.11-.65-.23-.97-.34Z"/>
      <path class="cls-10" d="M247.55,340.97c-6.08-6.28-11.32-11.6-16.4-17.07-.5-.54-.42-2.28.08-2.96,3.21-4.37,6.62-8.58,9.93-12.87,1.26-1.64,2.51-1.85,4-.28,4.47,4.71,9.05,9.33,13.4,14.16.73.81,1.18,2.92.66,3.65-3.67,5.15-7.62,10.1-11.68,15.37Z"/>
      <path class="cls-11" d="M251.64,121.34v.24c-9.11,9.33-9.1,24.25.01,33.59h-.23s-.02,0-.02,0c-9.34-9.11-24.23-9.11-33.55-.01,0,0-.01-.01-.02,0v-.2c9.12-9.35,9.12-24.26,0-33.61h.25c9.33,9.1,24.22,9.1,33.54,0,0,0,.01.01.02,0Z"/>
    </g>
  </g>
</svg>